<svg width="12" height="12" viewBox="0 0 12 12" fill="none" xmlns="http://www.w3.org/2000/svg">
<path fill-rule="evenodd" clip-rule="evenodd" d="M6 1.5C4.48122 1.5 3.25 2.73122 3.25 4.25C3.25 5.62378 3.99529 7.2091 4.79963 8.50285C5.19485 9.13856 5.59082 9.68281 5.88806 10.0681C5.9272 10.1188 5.96459 10.1667 6 10.2117C6.03541 10.1667 6.0728 10.1188 6.11194 10.0681C6.40918 9.68281 6.80515 9.13856 7.20037 8.50285C8.00471 7.2091 8.75 5.62378 8.75 4.25C8.75 2.73122 7.51878 1.5 6 1.5ZM6 11C5.62412 11.3297 5.62404 11.3296 5.62395 11.3295L5.623 11.3284L5.6207 11.3258L5.61265 11.3165C5.60577 11.3086 5.5959 11.2971 5.58324 11.2823C5.55792 11.2526 5.52142 11.2095 5.47533 11.1539C5.38319 11.0426 5.25258 10.8815 5.09631 10.6789C4.78418 10.2743 4.36765 9.70202 3.95037 9.03084C3.12971 7.71083 2.25 5.92115 2.25 4.25C2.25 2.17893 3.92893 0.5 6 0.5C8.07107 0.5 9.75 2.17893 9.75 4.25C9.75 5.92115 8.87029 7.71083 8.04963 9.03084C7.63235 9.70202 7.21582 10.2743 6.90369 10.6789C6.74742 10.8815 6.61681 11.0426 6.52467 11.1539C6.47858 11.2095 6.44208 11.2526 6.41676 11.2823C6.4041 11.2971 6.39423 11.3086 6.38735 11.3165L6.3793 11.3258L6.377 11.3284L6.37629 11.3292C6.3762 11.3293 6.37588 11.3297 6 11ZM6 11L6.37588 11.3297C6.28095 11.4379 6.14397 11.5 6 11.5C5.85603 11.5 5.71888 11.4378 5.62395 11.3295L6 11Z" fill="#595C61"/>
<path fill-rule="evenodd" clip-rule="evenodd" d="M6 3.25C5.44772 3.25 5 3.69772 5 4.25C5 4.80228 5.44772 5.25 6 5.25C6.55228 5.25 7 4.80228 7 4.25C7 3.69772 6.55228 3.25 6 3.25ZM4 4.25C4 3.14543 4.89543 2.25 6 2.25C7.10457 2.25 8 3.14543 8 4.25C8 5.35457 7.10457 6.25 6 6.25C4.89543 6.25 4 5.35457 4 4.25Z" fill="#595C61"/>
</svg>
