<svg width="25" height="24" viewBox="0 0 25 24" fill="none" xmlns="http://www.w3.org/2000/svg">
<path fill-rule="evenodd" clip-rule="evenodd" d="M10.6348 4C7.32106 4 4.63477 6.68629 4.63477 10C4.63477 13.3137 7.32106 16 10.6348 16C13.9485 16 16.6348 13.3137 16.6348 10C16.6348 6.68629 13.9485 4 10.6348 4ZM2.63477 10C2.63477 5.58172 6.21649 2 10.6348 2C15.053 2 18.6348 5.58172 18.6348 10C18.6348 14.4183 15.053 18 10.6348 18C6.21649 18 2.63477 14.4183 2.63477 10Z" fill="white"/>
<path fill-rule="evenodd" clip-rule="evenodd" d="M14.1348 10C14.1348 8.067 12.5678 6.5 10.6348 6.5V4.5C13.6723 4.5 16.1348 6.96243 16.1348 10H14.1348Z" fill="white"/>
<path fill-rule="evenodd" clip-rule="evenodd" d="M16.3419 14.293L22.3419 20.293L20.9277 21.7072L14.9277 15.7072L16.3419 14.293Z" fill="white"/>
</svg>
