<svg width="13" height="7" viewBox="0 0 13 7" fill="none" xmlns="http://www.w3.org/2000/svg">
<path d="M10.4902 3.99598H11.4858C11.9921 3.99598 12.2453 3.82638 12.2453 3.48716C12.2453 3.35442 12.2207 3.15531 12.1716 2.88984C12.1273 2.61945 12.0757 2.35643 12.0167 2.10079L12.5772 1.9533C12.6362 2.20403 12.6902 2.47934 12.7394 2.77922C12.7935 3.07911 12.8205 3.31263 12.8205 3.47978C12.8205 3.68626 12.7714 3.88045 12.673 4.06235C12.5747 4.23934 12.4248 4.38436 12.2232 4.49744C12.0216 4.60559 11.7758 4.65967 11.4858 4.65967H10.4902V3.99598ZM10.8221 0.345703H11.5595V1.08313H10.8221V0.345703ZM12.1421 0.345703H12.8795V1.08313H12.1421V0.345703Z" fill="#73767C"/>
<path d="M8.27359 5.86166C8.61772 5.86166 8.8832 5.81987 9.07001 5.73629C9.26175 5.65763 9.39448 5.53473 9.46823 5.36758C9.54197 5.20043 9.57884 4.9792 9.57884 4.70389V4.65965H8.76767C8.35471 4.65965 8.0204 4.53674 7.76476 4.29093C7.51403 4.04512 7.38867 3.70099 7.38867 3.25853C7.38867 2.95864 7.44521 2.68579 7.55828 2.43998C7.67627 2.19417 7.8385 1.99998 8.04498 1.85741C8.25638 1.71484 8.49482 1.64355 8.76029 1.64355C9.04052 1.64355 9.28633 1.71238 9.49772 1.85003C9.70912 1.98769 9.87135 2.17942 9.98443 2.42523C10.0975 2.66613 10.154 2.94389 10.154 3.25853V3.99596H10.567L10.6112 4.33518L10.567 4.65965H10.154V4.70389C10.154 5.26434 10.0041 5.7068 9.7042 6.03127C9.40923 6.36065 8.93236 6.52534 8.27359 6.52534H7.48454V5.86166H8.27359ZM7.96387 3.25853C7.96387 3.52892 8.02778 3.72065 8.1556 3.83372C8.28342 3.94188 8.48744 3.99596 8.76767 3.99596H9.57884V3.25853C9.57884 2.95864 9.51001 2.72512 9.37236 2.55797C9.23471 2.3859 9.03068 2.29987 8.76029 2.29987C8.50957 2.29987 8.31292 2.38836 8.17035 2.56534C8.03269 2.73741 7.96387 2.96847 7.96387 3.25853Z" fill="#73767C"/>
<path d="M3.50781 5.82775H3.71429C3.94535 5.82775 4.08792 5.72451 4.142 5.51803L4.37798 4.66999C4.48614 4.28652 4.65329 3.98663 4.87943 3.77032C5.10558 3.54909 5.37843 3.43848 5.69798 3.43848C5.95362 3.43848 6.17977 3.51468 6.37642 3.66708C6.57307 3.81457 6.72547 4.01613 6.83362 4.27177C6.94178 4.5225 6.99586 4.79535 6.99586 5.09032C6.99586 5.45412 6.94424 5.75401 6.841 5.98999C6.73776 6.22105 6.60256 6.3882 6.43541 6.49144C6.27318 6.5996 6.10111 6.65367 5.91921 6.65367C5.73239 6.65367 5.54558 6.6168 5.35876 6.54306C5.17195 6.47423 4.87698 6.33658 4.47385 6.1301C4.37552 6.24317 4.25999 6.33166 4.12725 6.39557C3.99452 6.45948 3.85686 6.49144 3.71429 6.49144H3.50781V5.82775ZM4.7467 5.54015C5.10066 5.72205 5.35139 5.8425 5.49887 5.90149C5.64636 5.96049 5.78647 5.98999 5.91921 5.98999C6.08636 5.98999 6.21172 5.92853 6.2953 5.80563C6.37887 5.67781 6.42066 5.43937 6.42066 5.09032C6.42066 4.7806 6.35921 4.53971 6.23631 4.36764C6.1134 4.19066 5.93396 4.10216 5.69798 4.10216C5.521 4.10216 5.36614 4.16362 5.2334 4.28652C5.10558 4.40943 5.00725 4.59624 4.93843 4.84697L4.7467 5.54015Z" fill="#73767C"/>
<path d="M3.46975 6.49188C2.98305 6.49188 2.64629 6.36161 2.45947 6.10105C2.27266 5.83557 2.17925 5.44719 2.17925 4.93591L2.17188 4.16406H2.74707L2.75445 4.93591C2.75445 5.20138 2.76919 5.39311 2.79869 5.5111C2.8331 5.62909 2.89702 5.71267 2.99042 5.76183C3.08875 5.80607 3.24852 5.8282 3.46975 5.8282H3.58037L3.61724 6.16742L3.58037 6.49188H3.46975Z" fill="#73767C"/>
<path d="M0.988157 0.945826C0.71285 1.50627 0.575196 2.02739 0.575196 2.50918C0.575196 2.95655 0.683352 3.31544 0.899665 3.58583C1.12089 3.86114 1.4552 3.99879 1.90257 3.99879H2.69162C3.02592 3.99879 3.28648 3.95946 3.4733 3.8808C3.66011 3.80706 3.79285 3.68661 3.87151 3.51946C3.95017 3.35722 3.9895 3.13354 3.9895 2.8484V0.532865H4.56469V2.8484C4.56469 3.41868 4.41475 3.86359 4.11486 4.18315C3.81497 4.5027 3.34056 4.66248 2.69162 4.66248H1.90257C1.49453 4.66248 1.14793 4.56169 0.862794 4.36013C0.577654 4.15857 0.361341 3.89309 0.213855 3.5637C0.071285 3.23432 0 2.88281 0 2.50918C0 1.9094 0.167151 1.29979 0.501453 0.680351L0.988157 0.945826ZM2.0943 0.510742H2.83173V1.24817H2.0943V0.510742Z" fill="#73767C"/>
</svg>
