<svg width="133" height="52" viewBox="0 0 133 52" fill="none" xmlns="http://www.w3.org/2000/svg">
<path d="M67.5015 4.11711C66.8567 3.87415 66.1433 3.87415 65.4985 4.11711L3.21589 27.5847C2.1844 27.9734 1.02794 27.4659 0.632853 26.4512C0.23777 25.4364 0.753675 24.2988 1.78516 23.9101L64.0678 0.442547C65.6338 -0.147515 67.3662 -0.147516 68.9322 0.442547L131.215 23.9101C132.246 24.2988 132.762 25.4364 132.367 26.4512C131.972 27.4659 130.816 27.9734 129.784 27.5847L67.5015 4.11711Z" fill="white"/>
<path fill-rule="evenodd" clip-rule="evenodd" d="M41.7946 45.6073C40.3583 45.6223 39.1189 45.3489 38.0764 44.7874C37.0399 44.2198 36.2371 43.4113 35.6682 42.3619C35.0991 41.3065 34.8067 40.0545 34.791 38.6058C34.7757 37.1929 35.041 35.95 35.587 34.8771C36.1329 33.8042 36.9087 32.9644 37.9143 32.3577C38.9259 31.751 40.1166 31.4405 41.4862 31.4263C42.4073 31.4167 43.2664 31.5539 44.0635 31.8377C44.8665 32.1156 45.5682 32.5406 46.1683 33.1127C46.7746 33.6847 47.2491 34.4072 47.5919 35.2801C47.9347 36.147 48.1124 37.1647 48.1251 38.3332L48.1364 39.3795L38.6279 39.4782L38.628 39.4872C38.6354 40.1668 38.769 40.7527 39.0289 41.2448C39.2949 41.737 39.6657 42.1147 40.1413 42.3781C40.6169 42.6414 41.1789 42.7697 41.8274 42.763C42.2576 42.7585 42.6509 42.6948 43.0072 42.5719C43.3634 42.4489 43.6675 42.2669 43.9195 42.0258C44.1714 41.7847 44.3622 41.4906 44.4917 41.1434L48.0758 41.3387C47.9032 42.1871 47.5385 42.9303 46.9818 43.568C46.431 44.1998 45.7152 44.6961 44.8342 45.0571C43.9592 45.412 42.946 45.5954 41.7946 45.6073ZM38.9786 35.7631C38.7482 36.1725 38.624 36.6239 38.606 37.1174L44.4656 37.0565C44.4596 36.5081 44.3332 36.0234 44.0862 35.6027C43.8392 35.1819 43.4992 34.8545 43.0664 34.6206C42.6395 34.3805 42.1443 34.2635 41.5807 34.2693C40.9928 34.2754 40.4731 34.415 40.0215 34.688C39.5759 34.9549 39.2282 35.3133 38.9786 35.7631Z" fill="white"/>
<path d="M54.5138 37.2652L54.5999 45.2061L50.7275 45.2463L50.5784 31.5107L54.2691 31.4724L54.2954 33.8958L54.459 33.8941C54.7594 33.092 55.2707 32.4547 55.9929 31.9821C56.715 31.5036 57.5942 31.259 58.6305 31.2482C59.6002 31.2382 60.4478 31.438 61.1735 31.8479C61.8992 32.2577 62.4663 32.848 62.8746 33.6189C63.283 34.3838 63.4929 35.2998 63.5045 36.3669L63.5994 45.1126L59.7269 45.1528L59.6394 37.0867C59.6363 36.2461 59.411 35.5926 58.9635 35.1262C58.516 34.6539 57.9043 34.4217 57.1286 34.4298C56.6074 34.4352 56.1481 34.5503 55.7505 34.775C55.359 34.9997 55.0534 35.3248 54.8337 35.7504C54.6201 36.17 54.5134 36.6749 54.5138 37.2652Z" fill="white"/>
<path d="M73.9292 31.2682L73.9603 34.1298L71.3332 34.1571L71.4053 40.8102C71.4092 41.162 71.4667 41.4356 71.5779 41.6312C71.689 41.8209 71.842 41.9534 72.0368 42.0289C72.2376 42.1043 72.4683 42.1407 72.7289 42.138C72.9107 42.1361 73.0923 42.1193 73.2738 42.0876C73.4553 42.05 73.5943 42.0217 73.6911 42.0028L74.3309 44.8312C74.1376 44.8928 73.8657 44.9642 73.515 45.0454C73.1644 45.1325 72.7377 45.1876 72.2349 45.2107C71.302 45.2562 70.4826 45.1425 69.7766 44.8696C69.0766 44.5966 68.5295 44.167 68.1352 43.5809C67.741 42.9947 67.542 42.2515 67.5383 41.3512L67.4607 34.1973L65.5517 34.2171L65.5207 31.3555L67.4296 31.3357L67.3939 28.0449L71.2664 28.0047L71.3021 31.2955L73.9292 31.2682Z" fill="white"/>
<path d="M76.6008 44.9776L76.4518 31.242L80.3243 31.2018L80.4733 44.9373L76.6008 44.9776Z" fill="white"/>
<path d="M78.3779 29.4512C77.8022 29.4572 77.3063 29.2745 76.8901 28.9032C76.4799 28.5259 76.2719 28.0719 76.2662 27.5414C76.2605 27.0167 76.4586 26.5645 76.8606 26.1847C77.2685 25.7989 77.7604 25.603 78.3361 25.597C78.9118 25.591 79.4048 25.7767 79.8149 26.154C80.2311 26.5253 80.4421 26.9733 80.4477 27.4979C80.4535 28.0285 80.2524 28.4867 79.8444 28.8725C79.4425 29.2523 78.9536 29.4452 78.3779 29.4512Z" fill="white"/>
<path fill-rule="evenodd" clip-rule="evenodd" d="M18.9272 45.5765L18.7285 27.2625L26.0735 27.1862C27.4795 27.1716 28.6821 27.4065 29.6813 27.891C30.6866 28.3695 31.4547 29.0561 31.9856 29.9509C32.5226 30.8397 32.7976 31.8892 32.8107 33.0994C32.8239 34.3155 32.5686 35.3646 32.0448 36.2465C31.521 37.1224 30.7555 37.7981 29.7485 38.2736C29.6933 38.2999 29.6374 38.3254 29.5809 38.3502L33.6081 45.4241L29.2629 45.4692L25.6661 39.0136L22.7929 39.0435L22.8633 45.5357L18.9272 45.5765ZM22.7591 35.9315L25.4317 35.9037C26.1832 35.8959 26.8063 35.7881 27.301 35.5802C27.7957 35.3724 28.1621 35.0645 28.4001 34.6566C28.6442 34.2486 28.763 33.7436 28.7564 33.1415C28.7498 32.5334 28.62 32.022 28.367 31.6072C28.1201 31.1924 27.744 30.8804 27.2387 30.671C26.7393 30.4555 26.1109 30.3518 25.3534 30.3596L22.699 30.3872L22.7591 35.9315Z" fill="#0D6EFD"/>
<path fill-rule="evenodd" clip-rule="evenodd" d="M89.8249 34.7105V41.5599C91.9816 42.3077 93.5232 44.2913 93.5232 46.6208C93.5232 49.5914 91.0162 51.9996 87.9235 51.9996C84.8309 51.9996 82.3239 49.5914 82.3239 46.6208C82.3239 44.3629 83.7722 42.4299 85.8252 41.6323V20.495H89.8249V23.9528H98.2244V27.4107H89.8249V31.2527H97.4244V34.7105H89.8249ZM85.5456 46.6208C85.5456 47.8823 86.6102 48.905 87.9235 48.905C89.2369 48.905 90.3015 47.8823 90.3015 46.6208C90.3015 45.3592 89.2369 44.3365 87.9235 44.3365C86.6102 44.3365 85.5456 45.3592 85.5456 46.6208Z" fill="#0D6EFD"/>
<path d="M103.406 50.0425C102.915 50.0425 102.455 50.0037 102.024 49.9262C101.6 49.8547 101.248 49.7622 100.97 49.649L101.842 46.8051C102.297 46.9422 102.706 47.0168 103.07 47.0287C103.439 47.0406 103.758 46.9571 104.024 46.7783C104.297 46.5994 104.518 46.2954 104.688 45.8661L104.915 45.2848L99.9061 31.155H103.979L106.87 41.2426H107.015L109.933 31.155H114.033L108.606 46.3759C108.345 47.1151 107.991 47.759 107.542 48.3075C107.1 48.862 106.539 49.2883 105.861 49.5864C105.182 49.8904 104.364 50.0425 103.406 50.0425Z" fill="white"/>
<path d="M100.489 5.12437H108.238C108.348 5.12437 108.438 5.21246 108.438 5.32112V13.9771C108.438 14.1155 108.296 14.2106 108.165 14.1605L100.416 11.2017C100.339 11.1724 100.289 11.0995 100.289 11.0183V5.32112C100.289 5.21246 100.378 5.12437 100.489 5.12437Z" fill="white"/>
</svg>
