<svg width="210" height="83" viewBox="0 0 210 83" fill="none" xmlns="http://www.w3.org/2000/svg">
<path fill-rule="evenodd" clip-rule="evenodd" d="M111.84 6.98933C110.816 6.57832 109.673 6.5585 108.635 6.93374L4.59342 44.5427C2.94884 45.1372 1.12649 44.3056 0.523092 42.6854C-0.080309 41.0651 0.763731 39.2697 2.40831 38.6752L106.45 1.06622C108.971 0.154907 111.746 0.203045 114.233 1.20122L207.698 38.7149C209.32 39.3661 210.099 41.1896 209.438 42.788C208.777 44.3863 206.927 45.1542 205.304 44.503L111.84 6.98933Z" fill="#0C0C0C"/>
<path d="M118.962 71.8687L118.713 50.0519L124.855 49.9912L125.104 71.808L118.962 71.8687ZM121.767 47.2091C120.853 47.2181 120.067 46.9276 119.406 46.3375C118.756 45.7379 118.425 45.0167 118.416 44.1739C118.406 43.3406 118.72 42.6225 119.357 42.0196C120.004 41.4071 120.784 41.0964 121.697 41.0873C122.61 41.0783 123.392 41.3736 124.043 41.9733C124.703 42.5634 125.038 43.2751 125.047 44.1084C125.057 44.9511 124.739 45.6787 124.092 46.2912C123.455 46.8941 122.68 47.2001 121.767 47.2091Z" fill="#0C0C0C"/>
<path d="M114.712 50.0912L114.763 54.6364L101.428 54.7682L101.376 50.223L114.712 50.0912ZM104.344 44.9662L110.486 44.9055L110.717 65.2451C110.724 65.8038 110.815 66.2385 110.992 66.5493C111.168 66.8506 111.411 67.0612 111.72 67.1813C112.038 67.3013 112.404 67.3592 112.818 67.3551C113.106 67.3523 113.394 67.3257 113.682 67.2756C113.97 67.2159 114.19 67.1711 114.344 67.1412L115.361 71.6342C115.054 71.7319 114.623 71.8451 114.067 71.9737C113.511 72.1118 112.834 72.1989 112.037 72.2352C110.558 72.3067 109.258 72.1254 108.138 71.6914C107.027 71.2572 106.159 70.5745 105.534 69.6431C104.908 68.7118 104.592 67.5311 104.585 66.1012L104.344 44.9662Z" fill="#0C0C0C"/>
<path d="M83.9255 59.6012L84.0693 72.214L77.9277 72.2747L77.679 50.4579L83.5323 50.4L83.5761 54.2492L83.8357 54.2467C84.3114 52.973 85.1217 51.9611 86.2666 51.2111C87.4114 50.4517 88.8056 50.0638 90.4491 50.0476C91.9869 50.0324 93.3315 50.3505 94.4828 51.0021C95.6341 51.6536 96.5339 52.5917 97.1823 53.8164C97.8306 55.0317 98.1644 56.4868 98.1837 58.1818L98.342 72.0729L92.2004 72.1336L92.0544 59.3219C92.0488 57.9867 91.6909 56.9485 90.9807 56.2074C90.2705 55.4568 89.3002 55.0876 88.07 55.0997C87.2434 55.1079 86.515 55.2903 85.8846 55.6469C85.2639 56.0035 84.7795 56.5196 84.4316 57.1955C84.0931 57.8617 83.9244 58.6636 83.9255 59.6012Z" fill="#0C0C0C"/>
<path d="M63.76 72.8403C61.4821 72.8628 59.5163 72.4277 57.8624 71.5349C56.218 70.6325 54.9441 69.3477 54.0408 67.6804C53.1373 66.0036 52.6725 64.0148 52.6463 61.7138C52.6207 59.4696 53.0404 57.4957 53.9053 55.7919C54.7702 54.0882 55.9998 52.755 57.5941 51.7922C59.198 50.8294 61.086 50.3372 63.2582 50.3157C64.7191 50.3013 66.0817 50.5198 67.3461 50.9714C68.6199 51.4133 69.7331 52.0889 70.6854 52.9981C71.6474 53.9072 72.4007 55.0551 72.9451 56.4419C73.4895 57.8191 73.7723 59.4357 73.7934 61.2917L73.8124 62.9535L55.1137 63.1383L55.0709 59.3886L67.9885 59.2609C67.9785 58.3897 67.7775 57.6199 67.3854 56.9514C66.9933 56.2829 66.4539 55.7626 65.7672 55.3906C65.0899 55.009 64.3044 54.8226 63.4106 54.8315C62.4783 54.8407 61.6541 55.0619 60.9381 55.4951C60.2317 55.9188 59.6806 56.4877 59.285 57.2019C58.8894 57.9066 58.6916 58.6899 58.6918 59.5516L58.7325 63.1168C58.7448 64.1962 58.9572 65.1269 59.3699 65.9089C59.7921 66.6907 60.3805 67.291 61.135 67.7097C61.8896 68.1284 62.781 68.3327 63.8094 68.3225C64.4918 68.3158 65.1155 68.2149 65.6804 68.0199C66.2453 67.8249 66.7274 67.5361 67.1268 67.1533C67.5262 66.7706 67.8284 66.3035 68.0336 65.7522L73.7181 66.0654C73.4451 67.4128 72.8674 68.5929 71.9849 69.6054C71.112 70.6084 69.9772 71.3962 68.5803 71.9687C67.1929 72.5317 65.5862 72.8222 63.76 72.8403Z" fill="#0C0C0C"/>
<path d="M27.4937 72.7727L27.1621 43.6836L38.811 43.5685C41.0408 43.5464 42.9483 43.9206 44.5335 44.6909C46.1282 45.4517 47.347 46.5429 48.1898 47.9646C49.0422 49.3767 49.4793 51.0439 49.5013 52.9661C49.5233 54.8978 49.1193 56.5638 48.2894 57.9641C47.4594 59.355 46.246 60.4276 44.6494 61.1821C43.0623 61.9364 41.1346 62.3248 38.8664 62.3473L31.0669 62.4243L31.0105 57.4815L37.8009 57.4144C38.9927 57.4026 39.9808 57.2318 40.7652 56.9021C41.5497 56.5723 42.1305 56.0836 42.5076 55.4359C42.8943 54.7881 43.0822 53.986 43.0713 53.0297C43.0603 52.0638 42.854 51.2514 42.4524 50.5925C42.0604 49.9334 41.4636 49.4374 40.6619 49.1044C39.8698 48.7618 38.8731 48.5965 37.6717 48.6084L33.4619 48.65L33.7362 72.711L27.4937 72.7727ZM43.2879 59.3773L50.7769 72.5425L43.8857 72.6107L36.5552 59.4438L43.2879 59.3773Z" fill="#0D6EFD"/>
<path fill-rule="evenodd" clip-rule="evenodd" d="M143.265 66.4184V55.5392H155.947V50.047H143.265V43.9445H157.282V38.4522H143.265V32.96H136.59V66.5333C133.163 67.8 130.746 70.8703 130.746 74.4567C130.746 79.1752 134.93 83.0003 140.091 83.0003C145.252 83.0003 149.436 79.1752 149.436 74.4567C149.436 70.7568 146.864 67.6062 143.265 66.4184ZM140.091 78.0849C137.899 78.0849 136.123 76.4605 136.123 74.4567C136.123 72.453 137.899 70.8286 140.091 70.8286C142.283 70.8286 144.06 72.453 144.06 74.4567C144.06 76.4605 142.283 78.0849 140.091 78.0849Z" fill="#0D6EFD"/>
<path d="M166.225 79.8916C165.446 79.8916 164.716 79.83 164.033 79.7069C163.36 79.5933 162.803 79.4465 162.361 79.2666L163.745 74.7496C164.466 74.9674 165.114 75.0857 165.691 75.1047C166.277 75.1236 166.782 74.991 167.205 74.7069C167.638 74.4229 167.988 73.9399 168.257 73.2581L168.618 72.3348L160.674 49.8916H167.133L171.718 65.9143H171.948L176.576 49.8916H183.079L174.471 74.0677C174.058 75.242 173.496 76.2647 172.785 77.1359C172.083 78.0166 171.194 78.6937 170.117 79.1672C169.041 79.6501 167.743 79.8916 166.225 79.8916Z" fill="#0C0C0C"/>
<path d="M171.036 8.55957H158.705C158.354 8.55957 158.07 8.83939 158.07 9.18457V17.1001C158.07 17.3527 158.225 17.5805 158.462 17.6774L170.792 22.7187C171.21 22.8895 171.67 22.587 171.67 22.1414V9.18457C171.67 8.83939 171.386 8.55957 171.036 8.55957Z" fill="#0C0C0C"/>
</svg>
